# xmcd
#
# Track frame offsets:
#	187
#	11010
#	15355
#	17220
#	27795
#	28860
#	42690
#	48885
#	54222
#	67060
#	67782
#	75207
#	81792
#	90367
#	94457
#	94922
#	106010
#	116322
#	126650
#	138337
#	140795
#	148715
#	155202
#	158847
#	162985
#	177600
#	186380
#	196610
#	197395
#	204005
#	209550
#	219985
#	222197
#	234937
#	236005
#	236467
#
# Disc length: 3442 seconds
#
# Revision: 1
# Processed by: cddbd v1.5.1PL0 Copyright (c) Steve Scherf et al.
# Submitted via: CDex 1.50Beta5
#
DISCID=ed0d7024
DTITLE=サウンドトラック - アルバートオデッセイ全曲集
DYEAR=1900
DGENRE=Soundtrack
TTITLE0=過去の記憶
TTITLE1=追憶の彼方
TTITLE2=虚空の彼方へ
TTITLE3=神聖王ゴートに捧ぐ
TTITLE4=同志集いて
TTITLE5=チベリス我が故郷
TTITLE6=聖域にて
TTITLE7=買い物上手
TTITLE8=勇者のゆく道
TTITLE9=みなぎる力
TTITLE10=魔中の咆哮
TTITLE11=襲撃の炎
TTITLE12=ゴートの旗のもとに
TTITLE13=おやすみソフィア
TTITLE14=お疲れさま
TTITLE15=風に乗る雲
TTITLE16=おれたちゃ陽気な労働者!
TTITLE17=異郷の地にて
TTITLE18=恋人たちの追悼歌
TTITLE19=マニアの証明
TTITLE20=眠れる大地
TTITLE21=魔導の胎動
TTITLE22=新たな大地へ
TTITLE23=不思議の園
TTITLE24=黄昏の地
TTITLE25=麗しき妖精たちよ
TTITLE26=暗闇の迷走
TTITLE27=ささやかな光
TTITLE28=魔王の神殿
TTITLE29=狂宴の使者
TTITLE30=この命尽きるまで
TTITLE31=鎮魂歌:戦士の墓標
TTITLE32=新たな英雄の頌歌
TTITLE33=いつかまた…
TTITLE34=サンソフト
TTITLE35=幻想曲”遠き日々のうた声”
EXTD=
EXTT0=
EXTT1=
EXTT2=
EXTT3=
EXTT4=
EXTT5=
EXTT6=
EXTT7=
EXTT8=
EXTT9=
EXTT10=
EXTT11=
EXTT12=
EXTT13=
EXTT14=
EXTT15=
EXTT16=
EXTT17=
EXTT18=
EXTT19=
EXTT20=
EXTT21=
EXTT22=
EXTT23=
EXTT24=
EXTT25=
EXTT26=
EXTT27=
EXTT28=
EXTT29=
EXTT30=
EXTT31=
EXTT32=
EXTT33=
EXTT34=
EXTT35=
PLAYORDER=
